<?xml version="1.0" encoding="UTF-8" standalone="no"?>
<!DOCTYPE svg PUBLIC "-//W3C//DTD SVG 1.1//EN"
 "http://www.w3.org/Graphics/SVG/1.1/DTD/svg11.dtd">
<!-- Generated by graphviz version 9.0.0 (0)
 -->
<!-- Title: G Pages: 1 -->
<svg width="1856pt" height="980pt"
 viewBox="0.00 0.00 1856.00 980.00" xmlns="http://www.w3.org/2000/svg" xmlns:xlink="http://www.w3.org/1999/xlink">
<g id="graph0" class="graph" transform="scale(1 1) rotate(0) translate(4 976)">
<title>G</title>
<polygon fill="white" stroke="none" points="-4,4 -4,-976 1852,-976 1852,4 -4,4"/>
<!-- ps -->
<g id="node1" class="node">
<title>ps</title>
<ellipse fill="none" stroke="black" cx="315" cy="-954" rx="27" ry="18"/>
<text text-anchor="middle" x="315" y="-949.33" font-family="Times,serif" font-size="14.00">ps</text>
</g>
<!-- xc -->
<g id="node2" class="node">
<title>xc</title>
<ellipse fill="none" stroke="black" cx="260" cy="-882" rx="27" ry="18"/>
<text text-anchor="middle" x="260" y="-877.33" font-family="Times,serif" font-size="14.00">xc</text>
</g>
<!-- ps&#45;&gt;xc -->
<g id="edge1" class="edge">
<title>ps&#45;&gt;xc</title>
<path fill="none" stroke="black" d="M302.79,-937.46C295.89,-928.67 287.09,-917.48 279.27,-907.53"/>
<polygon fill="black" stroke="black" points="282.04,-905.38 273.11,-899.68 276.53,-909.71 282.04,-905.38"/>
</g>
<!-- kz -->
<g id="node11" class="node">
<title>kz</title>
<ellipse fill="none" stroke="black" cx="210" cy="-810" rx="27" ry="18"/>
<text text-anchor="middle" x="210" y="-805.33" font-family="Times,serif" font-size="14.00">kz</text>
</g>
<!-- xc&#45;&gt;kz -->
<g id="edge42" class="edge">
<title>xc&#45;&gt;kz</title>
<path fill="none" stroke="black" d="M248.9,-865.46C242.69,-856.76 234.79,-845.71 227.74,-835.84"/>
<polygon fill="black" stroke="black" points="230.61,-833.83 221.95,-827.72 224.91,-837.9 230.61,-833.83"/>
</g>
<!-- jc -->
<g id="node12" class="node">
<title>jc</title>
<ellipse fill="none" stroke="black" cx="237" cy="-666" rx="27" ry="18"/>
<text text-anchor="middle" x="237" y="-661.33" font-family="Times,serif" font-size="14.00">jc</text>
</g>
<!-- xc&#45;&gt;jc -->
<g id="edge41" class="edge">
<title>xc&#45;&gt;jc</title>
<path fill="none" stroke="black" d="M258.16,-863.85C254.21,-827.14 244.92,-740.66 240.07,-695.53"/>
<polygon fill="black" stroke="black" points="243.56,-695.31 239.01,-685.74 236.6,-696.05 243.56,-695.31"/>
</g>
<!-- gt -->
<g id="node3" class="node">
<title>gt</title>
<ellipse fill="none" stroke="black" cx="1517" cy="-90" rx="27" ry="18"/>
<text text-anchor="middle" x="1517" y="-85.33" font-family="Times,serif" font-size="14.00">gt</text>
</g>
<!-- xq -->
<g id="node4" class="node">
<title>xq</title>
<ellipse fill="none" stroke="black" cx="1605" cy="-810" rx="27" ry="18"/>
<text text-anchor="middle" x="1605" y="-805.33" font-family="Times,serif" font-size="14.00">xq</text>
</g>
<!-- gt&#45;&gt;xq -->
<g id="edge2" class="edge">
<title>gt&#45;&gt;xq</title>
<path fill="none" stroke="black" d="M1501.78,-105.13C1477.82,-128.99 1434,-179.89 1434,-233 1434,-667 1434,-667 1434,-667 1434,-713.04 1452.63,-725.37 1487,-756 1510.55,-776.99 1543.79,-790.9 1568.99,-799.19"/>
<polygon fill="black" stroke="black" points="1567.91,-802.51 1578.5,-802.15 1569.99,-795.83 1567.91,-802.51"/>
</g>
<!-- hg -->
<g id="node5" class="node">
<title>hg</title>
<ellipse fill="none" stroke="black" cx="1696" cy="-18" rx="27" ry="18"/>
<text text-anchor="middle" x="1696" y="-13.32" font-family="Times,serif" font-size="14.00">hg</text>
</g>
<!-- gt&#45;&gt;hg -->
<g id="edge3" class="edge">
<title>gt&#45;&gt;hg</title>
<path fill="none" stroke="black" d="M1540.03,-79.99C1571.18,-67.81 1626.94,-46.01 1662.66,-32.04"/>
<polygon fill="black" stroke="black" points="1663.61,-35.43 1671.64,-28.52 1661.06,-28.91 1663.61,-35.43"/>
</g>
<!-- nt -->
<g id="node7" class="node">
<title>nt</title>
<ellipse fill="none" stroke="black" cx="1605" cy="-882" rx="27" ry="18"/>
<text text-anchor="middle" x="1605" y="-877.33" font-family="Times,serif" font-size="14.00">nt</text>
</g>
<!-- xq&#45;&gt;nt -->
<g id="edge93" class="edge">
<title>xq&#45;&gt;nt</title>
<path fill="none" stroke="black" d="M1610.86,-827.79C1611.66,-835.25 1611.92,-844.24 1611.64,-852.69"/>
<polygon fill="black" stroke="black" points="1608.16,-852.33 1610.98,-862.54 1615.14,-852.8 1608.16,-852.33"/>
</g>
<!-- cx -->
<g id="node16" class="node">
<title>cx</title>
<ellipse fill="none" stroke="black" cx="1755" cy="-738" rx="27" ry="18"/>
<text text-anchor="middle" x="1755" y="-733.33" font-family="Times,serif" font-size="14.00">cx</text>
</g>
<!-- xq&#45;&gt;cx -->
<g id="edge90" class="edge">
<title>xq&#45;&gt;cx</title>
<path fill="none" stroke="black" d="M1626.81,-798.82C1652.03,-787.05 1693.77,-767.57 1722.75,-754.05"/>
<polygon fill="black" stroke="black" points="1724.21,-757.23 1731.79,-749.83 1721.25,-750.89 1724.21,-757.23"/>
</g>
<!-- hs -->
<g id="node20" class="node">
<title>hs</title>
<ellipse fill="none" stroke="black" cx="1584" cy="-450" rx="27" ry="18"/>
<text text-anchor="middle" x="1584" y="-445.32" font-family="Times,serif" font-size="14.00">hs</text>
</g>
<!-- xq&#45;&gt;hs -->
<g id="edge92" class="edge">
<title>xq&#45;&gt;hs</title>
<path fill="none" stroke="black" d="M1594.01,-793.22C1577.45,-767.85 1548,-715.88 1548,-667 1548,-667 1548,-667 1548,-593 1548,-552.09 1562.21,-506.54 1572.78,-478.32"/>
<polygon fill="black" stroke="black" points="1575.99,-479.7 1576.34,-469.11 1569.47,-477.17 1575.99,-479.7"/>
</g>
<!-- zl -->
<g id="node22" class="node">
<title>zl</title>
<ellipse fill="none" stroke="black" cx="1546" cy="-306" rx="27" ry="18"/>
<text text-anchor="middle" x="1546" y="-301.32" font-family="Times,serif" font-size="14.00">zl</text>
</g>
<!-- xq&#45;&gt;zl -->
<g id="edge89" class="edge">
<title>xq&#45;&gt;zl</title>
<path fill="none" stroke="black" d="M1588.02,-795.7C1560.69,-772.67 1510,-722.47 1510,-667 1510,-667 1510,-667 1510,-449 1510,-408.09 1524.21,-362.54 1534.78,-334.32"/>
<polygon fill="black" stroke="black" points="1537.99,-335.7 1538.34,-325.11 1531.47,-333.17 1537.99,-335.7"/>
</g>
<!-- qh -->
<g id="node39" class="node">
<title>qh</title>
<ellipse fill="none" stroke="black" cx="1679" cy="-666" rx="27" ry="18"/>
<text text-anchor="middle" x="1679" y="-661.33" font-family="Times,serif" font-size="14.00">qh</text>
</g>
<!-- xq&#45;&gt;qh -->
<g id="edge91" class="edge">
<title>xq&#45;&gt;qh</title>
<path fill="none" stroke="black" d="M1615.65,-793.07C1622.39,-782.71 1631.11,-768.79 1638,-756 1648.91,-735.76 1659.73,-712.08 1667.51,-694.24"/>
<polygon fill="black" stroke="black" points="1670.71,-695.66 1671.45,-685.1 1664.28,-692.89 1670.71,-695.66"/>
</g>
<!-- sp -->
<g id="node46" class="node">
<title>sp</title>
<ellipse fill="none" stroke="black" cx="1031" cy="-738" rx="27" ry="18"/>
<text text-anchor="middle" x="1031" y="-733.33" font-family="Times,serif" font-size="14.00">sp</text>
</g>
<!-- xq&#45;&gt;sp -->
<g id="edge94" class="edge">
<title>xq&#45;&gt;sp</title>
<path fill="none" stroke="black" d="M1578.47,-805.76C1485.91,-794.48 1177.14,-756.82 1068.89,-743.62"/>
<polygon fill="black" stroke="black" points="1069.44,-740.16 1059.09,-742.43 1068.59,-747.11 1069.44,-740.16"/>
</g>
<!-- hg&#45;&gt;xq -->
<g id="edge70" class="edge">
<title>hg&#45;&gt;xq</title>
<path fill="none" stroke="black" d="M1719.09,-27.9C1761.61,-45.99 1848,-91.3 1848,-161 1848,-667 1848,-667 1848,-667 1848,-709.34 1845.63,-727.85 1814,-756 1766.41,-798.35 1689.73,-807.81 1643.67,-809.4"/>
<polygon fill="black" stroke="black" points="1643.8,-805.9 1633.89,-809.62 1643.96,-812.9 1643.8,-805.9"/>
</g>
<!-- broadcaster -->
<g id="node6" class="node">
<title>broadcaster</title>
<ellipse fill="none" stroke="black" cx="986" cy="-954" rx="71.2" ry="18"/>
<text text-anchor="middle" x="986" y="-949.33" font-family="Times,serif" font-size="14.00">broadcaster</text>
</g>
<!-- broadcaster&#45;&gt;nt -->
<g id="edge4" class="edge">
<title>broadcaster&#45;&gt;nt</title>
<path fill="none" stroke="black" d="M1049.91,-945.77C1178.27,-931.26 1463.92,-898.95 1566.99,-887.3"/>
<polygon fill="black" stroke="black" points="1567.31,-890.79 1576.85,-886.18 1566.52,-883.83 1567.31,-890.79"/>
</g>
<!-- kx -->
<g id="node8" class="node">
<title>kx</title>
<ellipse fill="none" stroke="black" cx="739" cy="-882" rx="27" ry="18"/>
<text text-anchor="middle" x="739" y="-877.33" font-family="Times,serif" font-size="14.00">kx</text>
</g>
<!-- broadcaster&#45;&gt;kx -->
<g id="edge5" class="edge">
<title>broadcaster&#45;&gt;kx</title>
<path fill="none" stroke="black" d="M939.83,-939.92C891.89,-926.33 817.94,-905.37 774.42,-893.04"/>
<polygon fill="black" stroke="black" points="775.55,-889.72 764.98,-890.36 773.65,-896.46 775.55,-889.72"/>
</g>
<!-- rc -->
<g id="node9" class="node">
<title>rc</title>
<ellipse fill="none" stroke="black" cx="1174" cy="-882" rx="27" ry="18"/>
<text text-anchor="middle" x="1174" y="-877.33" font-family="Times,serif" font-size="14.00">rc</text>
</g>
<!-- broadcaster&#45;&gt;rc -->
<g id="edge6" class="edge">
<title>broadcaster&#45;&gt;rc</title>
<path fill="none" stroke="black" d="M1024.95,-938.5C1058.92,-925.85 1107.68,-907.69 1140.07,-895.63"/>
<polygon fill="black" stroke="black" points="1141.22,-898.94 1149.37,-892.17 1138.78,-892.38 1141.22,-898.94"/>
</g>
<!-- mg -->
<g id="node10" class="node">
<title>mg</title>
<ellipse fill="none" stroke="black" cx="352" cy="-594" rx="27.01" ry="18"/>
<text text-anchor="middle" x="352" y="-589.33" font-family="Times,serif" font-size="14.00">mg</text>
</g>
<!-- broadcaster&#45;&gt;mg -->
<g id="edge7" class="edge">
<title>broadcaster&#45;&gt;mg</title>
<path fill="none" stroke="black" d="M916.88,-949.38C857.79,-944.15 771.67,-931.34 703,-900 553.12,-831.6 419.14,-678.42 370.96,-619.11"/>
<polygon fill="black" stroke="black" points="373.92,-617.2 364.92,-611.6 368.46,-621.58 373.92,-617.2"/>
</g>
<!-- nt&#45;&gt;xq -->
<g id="edge11" class="edge">
<title>nt&#45;&gt;xq</title>
<path fill="none" stroke="black" d="M1599.12,-864.05C1598.33,-856.57 1598.08,-847.58 1598.37,-839.14"/>
<polygon fill="black" stroke="black" points="1601.85,-839.51 1599.04,-829.3 1594.87,-839.04 1601.85,-839.51"/>
</g>
<!-- nt&#45;&gt;cx -->
<g id="edge12" class="edge">
<title>nt&#45;&gt;cx</title>
<path fill="none" stroke="black" d="M1620.21,-866.6C1646.62,-841.6 1701.12,-790.01 1732.12,-760.66"/>
<polygon fill="black" stroke="black" points="1734.24,-763.47 1739.1,-754.05 1729.43,-758.39 1734.24,-763.47"/>
</g>
<!-- vv -->
<g id="node19" class="node">
<title>vv</title>
<ellipse fill="none" stroke="black" cx="707" cy="-738" rx="27" ry="18"/>
<text text-anchor="middle" x="707" y="-733.33" font-family="Times,serif" font-size="14.00">vv</text>
</g>
<!-- kx&#45;&gt;vv -->
<g id="edge33" class="edge">
<title>kx&#45;&gt;vv</title>
<path fill="none" stroke="black" d="M730.74,-864.43C722.8,-840.64 712.51,-796.47 707.87,-767.41"/>
<polygon fill="black" stroke="black" points="711.39,-767.25 706.51,-757.84 704.46,-768.24 711.39,-767.25"/>
</g>
<!-- sg -->
<g id="node33" class="node">
<title>sg</title>
<ellipse fill="none" stroke="black" cx="771" cy="-810" rx="27" ry="18"/>
<text text-anchor="middle" x="771" y="-805.33" font-family="Times,serif" font-size="14.00">sg</text>
</g>
<!-- kx&#45;&gt;sg -->
<g id="edge34" class="edge">
<title>kx&#45;&gt;sg</title>
<path fill="none" stroke="black" d="M746.58,-864.41C750.21,-856.48 754.64,-846.78 758.73,-837.84"/>
<polygon fill="black" stroke="black" points="761.87,-839.4 762.84,-828.85 755.5,-836.49 761.87,-839.4"/>
</g>
<!-- dv -->
<g id="node34" class="node">
<title>dv</title>
<ellipse fill="none" stroke="black" cx="1185" cy="-666" rx="27" ry="18"/>
<text text-anchor="middle" x="1185" y="-661.33" font-family="Times,serif" font-size="14.00">dv</text>
</g>
<!-- rc&#45;&gt;dv -->
<g id="edge68" class="edge">
<title>rc&#45;&gt;dv</title>
<path fill="none" stroke="black" d="M1171,-863.85C1169.38,-827.05 1173.55,-740.23 1178.8,-695.2"/>
<polygon fill="black" stroke="black" points="1182.26,-695.8 1180.08,-685.44 1175.31,-694.9 1182.26,-695.8"/>
</g>
<!-- rm -->
<g id="node51" class="node">
<title>rm</title>
<ellipse fill="none" stroke="black" cx="1238" cy="-810" rx="27" ry="18"/>
<text text-anchor="middle" x="1238" y="-805.33" font-family="Times,serif" font-size="14.00">rm</text>
</g>
<!-- rc&#45;&gt;rm -->
<g id="edge67" class="edge">
<title>rc&#45;&gt;rm</title>
<path fill="none" stroke="black" d="M1187.57,-866.15C1196.06,-856.87 1207.17,-844.73 1216.8,-834.19"/>
<polygon fill="black" stroke="black" points="1219.26,-836.68 1223.43,-826.94 1214.09,-831.96 1219.26,-836.68"/>
</g>
<!-- mg&#45;&gt;jc -->
<g id="edge19" class="edge">
<title>mg&#45;&gt;jc</title>
<path fill="none" stroke="black" d="M335.2,-608.56C317.69,-620.19 290.2,-636.98 268.67,-649.22"/>
<polygon fill="black" stroke="black" points="266.99,-646.15 259.97,-654.08 270.41,-652.26 266.99,-646.15"/>
</g>
<!-- hl -->
<g id="node23" class="node">
<title>hl</title>
<ellipse fill="none" stroke="black" cx="314" cy="-522" rx="27" ry="18"/>
<text text-anchor="middle" x="314" y="-517.33" font-family="Times,serif" font-size="14.00">hl</text>
</g>
<!-- mg&#45;&gt;hl -->
<g id="edge18" class="edge">
<title>mg&#45;&gt;hl</title>
<path fill="none" stroke="black" d="M343.19,-576.76C338.73,-568.55 333.2,-558.37 328.16,-549.09"/>
<polygon fill="black" stroke="black" points="331.33,-547.6 323.49,-540.48 325.18,-550.94 331.33,-547.6"/>
</g>
<!-- kz&#45;&gt;jc -->
<g id="edge8" class="edge">
<title>kz&#45;&gt;jc</title>
<path fill="none" stroke="black" d="M213.26,-791.87C217.82,-767.88 226.16,-723.99 231.65,-695.16"/>
<polygon fill="black" stroke="black" points="235.02,-696.15 233.45,-685.68 228.14,-694.85 235.02,-696.15"/>
</g>
<!-- mc -->
<g id="node13" class="node">
<title>mc</title>
<ellipse fill="none" stroke="black" cx="172" cy="-738" rx="27" ry="18"/>
<text text-anchor="middle" x="172" y="-733.33" font-family="Times,serif" font-size="14.00">mc</text>
</g>
<!-- kz&#45;&gt;mc -->
<g id="edge9" class="edge">
<title>kz&#45;&gt;mc</title>
<path fill="none" stroke="black" d="M201.19,-792.76C196.73,-784.55 191.2,-774.37 186.16,-765.09"/>
<polygon fill="black" stroke="black" points="189.33,-763.6 181.49,-756.48 183.18,-766.94 189.33,-763.6"/>
</g>
<!-- jc&#45;&gt;ps -->
<g id="edge29" class="edge">
<title>jc&#45;&gt;ps</title>
<path fill="none" stroke="black" d="M244.55,-683.48C249.11,-693.83 254.83,-707.53 259,-720 283.1,-792.14 301.34,-880.07 309.8,-924.45"/>
<polygon fill="black" stroke="black" points="306.36,-925.09 311.64,-934.27 313.24,-923.8 306.36,-925.09"/>
</g>
<!-- jc&#45;&gt;mg -->
<g id="edge32" class="edge">
<title>jc&#45;&gt;mg</title>
<path fill="none" stroke="black" d="M253.72,-651.5C271.27,-639.83 298.93,-622.94 320.53,-610.67"/>
<polygon fill="black" stroke="black" points="322.23,-613.73 329.25,-605.8 318.81,-607.61 322.23,-613.73"/>
</g>
<!-- xv -->
<g id="node31" class="node">
<title>xv</title>
<ellipse fill="none" stroke="black" cx="27" cy="-594" rx="27" ry="18"/>
<text text-anchor="middle" x="27" y="-589.33" font-family="Times,serif" font-size="14.00">xv</text>
</g>
<!-- jc&#45;&gt;xv -->
<g id="edge30" class="edge">
<title>jc&#45;&gt;xv</title>
<path fill="none" stroke="black" d="M212.42,-658.04C179.32,-648.5 118.72,-630.43 68,-612 65.34,-611.03 62.6,-609.99 59.85,-608.92"/>
<polygon fill="black" stroke="black" points="61.4,-605.77 50.82,-605.28 58.79,-612.27 61.4,-605.77"/>
</g>
<!-- lk -->
<g id="node32" class="node">
<title>lk</title>
<ellipse fill="none" stroke="black" cx="690" cy="-594" rx="27" ry="18"/>
<text text-anchor="middle" x="690" y="-589.33" font-family="Times,serif" font-size="14.00">lk</text>
</g>
<!-- jc&#45;&gt;lk -->
<g id="edge31" class="edge">
<title>jc&#45;&gt;lk</title>
<path fill="none" stroke="black" d="M263.31,-660.93C339.94,-649.09 563.12,-614.61 652.42,-600.81"/>
<polygon fill="black" stroke="black" points="652.77,-604.29 662.12,-599.31 651.7,-597.38 652.77,-604.29"/>
</g>
<!-- mc&#45;&gt;jc -->
<g id="edge64" class="edge">
<title>mc&#45;&gt;jc</title>
<path fill="none" stroke="black" d="M185.78,-722.15C194.4,-712.87 205.68,-700.73 215.46,-690.19"/>
<polygon fill="black" stroke="black" points="217.97,-692.64 222.21,-682.93 212.84,-687.88 217.97,-692.64"/>
</g>
<!-- mc&#45;&gt;xv -->
<g id="edge63" class="edge">
<title>mc&#45;&gt;xv</title>
<path fill="none" stroke="black" d="M157.3,-722.6C131.9,-697.73 79.63,-646.54 49.58,-617.12"/>
<polygon fill="black" stroke="black" points="52.42,-614.99 42.82,-610.49 47.52,-619.99 52.42,-614.99"/>
</g>
<!-- br -->
<g id="node14" class="node">
<title>br</title>
<ellipse fill="none" stroke="black" cx="800" cy="-594" rx="27" ry="18"/>
<text text-anchor="middle" x="800" y="-589.33" font-family="Times,serif" font-size="14.00">br</text>
</g>
<!-- jq -->
<g id="node15" class="node">
<title>jq</title>
<ellipse fill="none" stroke="black" cx="745" cy="-522" rx="27" ry="18"/>
<text text-anchor="middle" x="745" y="-517.33" font-family="Times,serif" font-size="14.00">jq</text>
</g>
<!-- br&#45;&gt;jq -->
<g id="edge10" class="edge">
<title>br&#45;&gt;jq</title>
<path fill="none" stroke="black" d="M787.79,-577.46C780.89,-568.67 772.09,-557.48 764.27,-547.53"/>
<polygon fill="black" stroke="black" points="767.04,-545.38 758.11,-539.68 761.53,-549.71 767.04,-545.38"/>
</g>
<!-- jq&#45;&gt;vv -->
<g id="edge21" class="edge">
<title>jq&#45;&gt;vv</title>
<path fill="none" stroke="black" d="M741.94,-540.23C735.41,-577.01 720.05,-663.5 712.05,-708.57"/>
<polygon fill="black" stroke="black" points="708.61,-707.9 710.31,-718.36 715.5,-709.12 708.61,-707.9"/>
</g>
<!-- mm -->
<g id="node24" class="node">
<title>mm</title>
<ellipse fill="none" stroke="black" cx="655" cy="-450" rx="30.16" ry="18"/>
<text text-anchor="middle" x="655" y="-445.32" font-family="Times,serif" font-size="14.00">mm</text>
</g>
<!-- jq&#45;&gt;mm -->
<g id="edge20" class="edge">
<title>jq&#45;&gt;mm</title>
<path fill="none" stroke="black" d="M728.07,-507.83C715,-497.67 696.67,-483.41 681.63,-471.71"/>
<polygon fill="black" stroke="black" points="684.01,-469.13 673.97,-465.76 679.72,-474.66 684.01,-469.13"/>
</g>
<!-- cx&#45;&gt;qh -->
<g id="edge43" class="edge">
<title>cx&#45;&gt;qh</title>
<path fill="none" stroke="black" d="M1739.62,-722.83C1729.01,-713.06 1714.7,-699.88 1702.65,-688.78"/>
<polygon fill="black" stroke="black" points="1705.2,-686.37 1695.47,-682.17 1700.45,-691.52 1705.2,-686.37"/>
</g>
<!-- cz -->
<g id="node17" class="node">
<title>cz</title>
<ellipse fill="none" stroke="black" cx="595" cy="-234" rx="27" ry="18"/>
<text text-anchor="middle" x="595" y="-229.32" font-family="Times,serif" font-size="14.00">cz</text>
</g>
<!-- lc -->
<g id="node18" class="node">
<title>lc</title>
<ellipse fill="none" stroke="black" cx="538" cy="-162" rx="27" ry="18"/>
<text text-anchor="middle" x="538" y="-157.32" font-family="Times,serif" font-size="14.00">lc</text>
</g>
<!-- cz&#45;&gt;lc -->
<g id="edge13" class="edge">
<title>cz&#45;&gt;lc</title>
<path fill="none" stroke="black" d="M582.63,-217.81C575.31,-208.82 565.87,-197.23 557.57,-187.03"/>
<polygon fill="black" stroke="black" points="560.33,-184.88 551.3,-179.33 554.9,-189.3 560.33,-184.88"/>
</g>
<!-- cz&#45;&gt;vv -->
<g id="edge14" class="edge">
<title>cz&#45;&gt;vv</title>
<path fill="none" stroke="black" d="M621.85,-237.11C688.27,-243.93 855,-271.56 855,-377 855,-595 855,-595 855,-595 855,-635.45 861.92,-652.95 836,-684 813.12,-711.4 773.81,-724.82 744.58,-731.27"/>
<polygon fill="black" stroke="black" points="744.14,-727.79 735.02,-733.19 745.51,-734.66 744.14,-727.79"/>
</g>
<!-- lc&#45;&gt;vv -->
<g id="edge49" class="edge">
<title>lc&#45;&gt;vv</title>
<path fill="none" stroke="black" d="M534.64,-179.97C529.69,-206.52 521,-259.56 521,-305 521,-595 521,-595 521,-595 521,-640.15 536,-654.28 570,-684 598.48,-708.89 639.94,-722.73 669.79,-729.97"/>
<polygon fill="black" stroke="black" points="669,-733.38 679.52,-732.18 670.55,-726.55 669,-733.38"/>
</g>
<!-- vn -->
<g id="node43" class="node">
<title>vn</title>
<ellipse fill="none" stroke="black" cx="500" cy="-90" rx="27" ry="18"/>
<text text-anchor="middle" x="500" y="-85.33" font-family="Times,serif" font-size="14.00">vn</text>
</g>
<!-- lc&#45;&gt;vn -->
<g id="edge50" class="edge">
<title>lc&#45;&gt;vn</title>
<path fill="none" stroke="black" d="M529.19,-144.76C524.73,-136.55 519.2,-126.37 514.16,-117.09"/>
<polygon fill="black" stroke="black" points="517.33,-115.6 509.49,-108.48 511.18,-118.94 517.33,-115.6"/>
</g>
<!-- vv&#45;&gt;kx -->
<g id="edge105" class="edge">
<title>vv&#45;&gt;kx</title>
<path fill="none" stroke="black" d="M715.15,-755.24C723.1,-778.92 733.44,-823.27 738.11,-852.48"/>
<polygon fill="black" stroke="black" points="734.6,-852.68 739.48,-862.09 741.53,-851.7 734.6,-852.68"/>
</g>
<!-- vv&#45;&gt;br -->
<g id="edge104" class="edge">
<title>vv&#45;&gt;br</title>
<path fill="none" stroke="black" d="M717.17,-720.84C728.47,-702.94 747.33,-673.27 764,-648 770.05,-638.83 776.8,-628.84 782.8,-620.03"/>
<polygon fill="black" stroke="black" points="785.57,-622.18 788.32,-611.94 779.79,-618.23 785.57,-622.18"/>
</g>
<!-- vv&#45;&gt;mm -->
<g id="edge106" class="edge">
<title>vv&#45;&gt;mm</title>
<path fill="none" stroke="black" d="M697.56,-720.71C684.72,-697.49 662.36,-653.12 654,-612 644.72,-566.34 647.95,-511.87 651.33,-479.43"/>
<polygon fill="black" stroke="black" points="654.79,-479.98 652.44,-469.65 647.84,-479.19 654.79,-479.98"/>
</g>
<!-- zv -->
<g id="node44" class="node">
<title>zv</title>
<ellipse fill="none" stroke="black" cx="910" cy="-666" rx="27" ry="18"/>
<text text-anchor="middle" x="910" y="-661.33" font-family="Times,serif" font-size="14.00">zv</text>
</g>
<!-- vv&#45;&gt;zv -->
<g id="edge103" class="edge">
<title>vv&#45;&gt;zv</title>
<path fill="none" stroke="black" d="M731.35,-729.67C763.23,-719.94 820.71,-701.88 869,-684 871.66,-683.02 874.39,-681.97 877.14,-680.89"/>
<polygon fill="black" stroke="black" points="878.21,-684.23 886.16,-677.23 875.58,-677.74 878.21,-684.23"/>
</g>
<!-- tr -->
<g id="node52" class="node">
<title>tr</title>
<ellipse fill="none" stroke="black" cx="800" cy="-666" rx="27" ry="18"/>
<text text-anchor="middle" x="800" y="-661.33" font-family="Times,serif" font-size="14.00">tr</text>
</g>
<!-- vv&#45;&gt;tr -->
<g id="edge107" class="edge">
<title>vv&#45;&gt;tr</title>
<path fill="none" stroke="black" d="M724.49,-723.83C738.39,-713.37 758.05,-698.58 773.82,-686.7"/>
<polygon fill="black" stroke="black" points="775.49,-689.83 781.38,-681.02 771.28,-684.24 775.49,-689.83"/>
</g>
<!-- sl -->
<g id="node21" class="node">
<title>sl</title>
<ellipse fill="none" stroke="black" cx="1584" cy="-378" rx="27" ry="18"/>
<text text-anchor="middle" x="1584" y="-373.32" font-family="Times,serif" font-size="14.00">sl</text>
</g>
<!-- hs&#45;&gt;sl -->
<g id="edge15" class="edge">
<title>hs&#45;&gt;sl</title>
<path fill="none" stroke="black" d="M1584,-431.7C1584,-424.41 1584,-415.73 1584,-407.54"/>
<polygon fill="black" stroke="black" points="1587.5,-407.62 1584,-397.62 1580.5,-407.62 1587.5,-407.62"/>
</g>
<!-- sl&#45;&gt;xq -->
<g id="edge17" class="edge">
<title>sl&#45;&gt;xq</title>
<path fill="none" stroke="black" d="M1606.78,-387.99C1648.74,-406.23 1734,-451.79 1734,-521 1734,-595 1734,-595 1734,-595 1734,-673.75 1712.41,-697.22 1660,-756 1650.31,-766.87 1638.81,-778.17 1628.84,-787.53"/>
<polygon fill="black" stroke="black" points="1626.63,-784.8 1621.66,-794.16 1631.38,-789.94 1626.63,-784.8"/>
</g>
<!-- sl&#45;&gt;zl -->
<g id="edge16" class="edge">
<title>sl&#45;&gt;zl</title>
<path fill="none" stroke="black" d="M1575.19,-360.76C1570.73,-352.55 1565.2,-342.37 1560.16,-333.09"/>
<polygon fill="black" stroke="black" points="1563.33,-331.6 1555.49,-324.48 1557.18,-334.94 1563.33,-331.6"/>
</g>
<!-- nj -->
<g id="node58" class="node">
<title>nj</title>
<ellipse fill="none" stroke="black" cx="1546" cy="-234" rx="27" ry="18"/>
<text text-anchor="middle" x="1546" y="-229.32" font-family="Times,serif" font-size="14.00">nj</text>
</g>
<!-- zl&#45;&gt;nj -->
<g id="edge101" class="edge">
<title>zl&#45;&gt;nj</title>
<path fill="none" stroke="black" d="M1546,-287.7C1546,-280.41 1546,-271.73 1546,-263.54"/>
<polygon fill="black" stroke="black" points="1549.5,-263.62 1546,-253.62 1542.5,-263.62 1549.5,-263.62"/>
</g>
<!-- hl&#45;&gt;jc -->
<g id="edge25" class="edge">
<title>hl&#45;&gt;jc</title>
<path fill="none" stroke="black" d="M307.24,-539.81C299.69,-558.01 286.72,-587.71 273,-612 267.59,-621.57 261,-631.65 254.94,-640.42"/>
<polygon fill="black" stroke="black" points="252.19,-638.24 249.28,-648.43 257.91,-642.27 252.19,-638.24"/>
</g>
<!-- qb -->
<g id="node26" class="node">
<title>qb</title>
<ellipse fill="none" stroke="black" cx="295" cy="-450" rx="27" ry="18"/>
<text text-anchor="middle" x="295" y="-445.32" font-family="Times,serif" font-size="14.00">qb</text>
</g>
<!-- hl&#45;&gt;qb -->
<g id="edge24" class="edge">
<title>hl&#45;&gt;qb</title>
<path fill="none" stroke="black" d="M309.4,-504.05C307.35,-496.49 304.87,-487.37 302.56,-478.85"/>
<polygon fill="black" stroke="black" points="305.95,-477.98 299.95,-469.25 299.2,-479.82 305.95,-477.98"/>
</g>
<!-- vh -->
<g id="node38" class="node">
<title>vh</title>
<ellipse fill="none" stroke="black" cx="614" cy="-378" rx="27" ry="18"/>
<text text-anchor="middle" x="614" y="-373.32" font-family="Times,serif" font-size="14.00">vh</text>
</g>
<!-- mm&#45;&gt;vh -->
<g id="edge40" class="edge">
<title>mm&#45;&gt;vh</title>
<path fill="none" stroke="black" d="M645.49,-432.76C640.63,-424.46 634.59,-414.15 629.11,-404.79"/>
<polygon fill="black" stroke="black" points="632.3,-403.31 624.22,-396.45 626.26,-406.85 632.3,-403.31"/>
</g>
<!-- pt -->
<g id="node25" class="node">
<title>pt</title>
<ellipse fill="none" stroke="black" cx="1517" cy="-162" rx="27" ry="18"/>
<text text-anchor="middle" x="1517" y="-157.32" font-family="Times,serif" font-size="14.00">pt</text>
</g>
<!-- pt&#45;&gt;gt -->
<g id="edge23" class="edge">
<title>pt&#45;&gt;gt</title>
<path fill="none" stroke="black" d="M1517,-143.7C1517,-136.41 1517,-127.73 1517,-119.54"/>
<polygon fill="black" stroke="black" points="1520.5,-119.62 1517,-109.62 1513.5,-119.62 1520.5,-119.62"/>
</g>
<!-- pt&#45;&gt;xq -->
<g id="edge22" class="edge">
<title>pt&#45;&gt;xq</title>
<path fill="none" stroke="black" d="M1508.32,-179.09C1495.25,-204.88 1472,-257.42 1472,-305 1472,-667 1472,-667 1472,-667 1472,-726.22 1534.39,-770.93 1573.7,-793.23"/>
<polygon fill="black" stroke="black" points="1571.85,-796.2 1582.3,-797.94 1575.21,-790.06 1571.85,-796.2"/>
</g>
<!-- qb&#45;&gt;jc -->
<g id="edge45" class="edge">
<title>qb&#45;&gt;jc</title>
<path fill="none" stroke="black" d="M289.38,-467.63C285.93,-478.03 281.52,-491.74 278,-504 264.66,-550.42 251.23,-604.99 243.54,-637.19"/>
<polygon fill="black" stroke="black" points="240.23,-635.98 241.32,-646.51 247.04,-637.59 240.23,-635.98"/>
</g>
<!-- cd -->
<g id="node41" class="node">
<title>cd</title>
<ellipse fill="none" stroke="black" cx="295" cy="-378" rx="27" ry="18"/>
<text text-anchor="middle" x="295" y="-373.32" font-family="Times,serif" font-size="14.00">cd</text>
</g>
<!-- qb&#45;&gt;cd -->
<g id="edge46" class="edge">
<title>qb&#45;&gt;cd</title>
<path fill="none" stroke="black" d="M295,-431.7C295,-424.41 295,-415.73 295,-407.54"/>
<polygon fill="black" stroke="black" points="298.5,-407.62 295,-397.62 291.5,-407.62 298.5,-407.62"/>
</g>
<!-- ln -->
<g id="node27" class="node">
<title>ln</title>
<ellipse fill="none" stroke="black" cx="1641" cy="-594" rx="27" ry="18"/>
<text text-anchor="middle" x="1641" y="-589.33" font-family="Times,serif" font-size="14.00">ln</text>
</g>
<!-- ln&#45;&gt;xq -->
<g id="edge27" class="edge">
<title>ln&#45;&gt;xq</title>
<path fill="none" stroke="black" d="M1638.1,-612.23C1631.91,-649.01 1617.36,-735.5 1609.78,-780.57"/>
<polygon fill="black" stroke="black" points="1606.34,-779.91 1608.14,-790.36 1613.25,-781.08 1606.34,-779.91"/>
</g>
<!-- mq -->
<g id="node28" class="node">
<title>mq</title>
<ellipse fill="none" stroke="black" cx="1603" cy="-522" rx="27.01" ry="18"/>
<text text-anchor="middle" x="1603" y="-517.33" font-family="Times,serif" font-size="14.00">mq</text>
</g>
<!-- ln&#45;&gt;mq -->
<g id="edge26" class="edge">
<title>ln&#45;&gt;mq</title>
<path fill="none" stroke="black" d="M1632.19,-576.76C1627.73,-568.55 1622.2,-558.37 1617.16,-549.09"/>
<polygon fill="black" stroke="black" points="1620.33,-547.6 1612.49,-540.48 1614.18,-550.94 1620.33,-547.6"/>
</g>
<!-- mq&#45;&gt;xq -->
<g id="edge66" class="edge">
<title>mq&#45;&gt;xq</title>
<path fill="none" stroke="black" d="M1603.12,-540.23C1603.45,-587.74 1604.38,-720.97 1604.8,-780.1"/>
<polygon fill="black" stroke="black" points="1601.3,-780.05 1604.87,-790.03 1608.3,-780 1601.3,-780.05"/>
</g>
<!-- mq&#45;&gt;hs -->
<g id="edge65" class="edge">
<title>mq&#45;&gt;hs</title>
<path fill="none" stroke="black" d="M1598.4,-504.05C1596.35,-496.49 1593.87,-487.37 1591.56,-478.85"/>
<polygon fill="black" stroke="black" points="1594.95,-477.98 1588.95,-469.25 1588.2,-479.82 1594.95,-477.98"/>
</g>
<!-- hx -->
<g id="node29" class="node">
<title>hx</title>
<ellipse fill="none" stroke="black" cx="1170" cy="-234" rx="27" ry="18"/>
<text text-anchor="middle" x="1170" y="-229.32" font-family="Times,serif" font-size="14.00">hx</text>
</g>
<!-- gf -->
<g id="node30" class="node">
<title>gf</title>
<ellipse fill="none" stroke="black" cx="1141" cy="-162" rx="27" ry="18"/>
<text text-anchor="middle" x="1141" y="-157.32" font-family="Times,serif" font-size="14.00">gf</text>
</g>
<!-- hx&#45;&gt;gf -->
<g id="edge28" class="edge">
<title>hx&#45;&gt;gf</title>
<path fill="none" stroke="black" d="M1163.13,-216.41C1159.84,-208.48 1155.82,-198.78 1152.12,-189.84"/>
<polygon fill="black" stroke="black" points="1155.46,-188.77 1148.4,-180.87 1149,-191.45 1155.46,-188.77"/>
</g>
<!-- gf&#45;&gt;dv -->
<g id="edge48" class="edge">
<title>gf&#45;&gt;dv</title>
<path fill="none" stroke="black" d="M1132.32,-179.09C1119.25,-204.88 1096,-257.42 1096,-305 1096,-523 1096,-523 1096,-523 1096,-572.09 1134.67,-618.16 1161.03,-643.86"/>
<polygon fill="black" stroke="black" points="1158.31,-646.11 1167.99,-650.43 1163.12,-641.02 1158.31,-646.11"/>
</g>
<!-- dc -->
<g id="node42" class="node">
<title>dc</title>
<ellipse fill="none" stroke="black" cx="1141" cy="-90" rx="27" ry="18"/>
<text text-anchor="middle" x="1141" y="-85.33" font-family="Times,serif" font-size="14.00">dc</text>
</g>
<!-- gf&#45;&gt;dc -->
<g id="edge47" class="edge">
<title>gf&#45;&gt;dc</title>
<path fill="none" stroke="black" d="M1141,-143.7C1141,-136.41 1141,-127.73 1141,-119.54"/>
<polygon fill="black" stroke="black" points="1144.5,-119.62 1141,-109.62 1137.5,-119.62 1144.5,-119.62"/>
</g>
<!-- tx -->
<g id="node55" class="node">
<title>tx</title>
<ellipse fill="none" stroke="black" cx="128" cy="-522" rx="27" ry="18"/>
<text text-anchor="middle" x="128" y="-517.33" font-family="Times,serif" font-size="14.00">tx</text>
</g>
<!-- xv&#45;&gt;tx -->
<g id="edge102" class="edge">
<title>xv&#45;&gt;tx</title>
<path fill="none" stroke="black" d="M45.06,-580.49C60.47,-569.8 82.88,-554.27 100.52,-542.04"/>
<polygon fill="black" stroke="black" points="102.29,-545.08 108.52,-536.5 98.3,-539.32 102.29,-545.08"/>
</g>
<!-- dg -->
<g id="node40" class="node">
<title>dg</title>
<ellipse fill="none" stroke="black" cx="929" cy="-522" rx="27" ry="18"/>
<text text-anchor="middle" x="929" y="-517.33" font-family="Times,serif" font-size="14.00">dg</text>
</g>
<!-- lk&#45;&gt;dg -->
<g id="edge81" class="edge">
<title>lk&#45;&gt;dg</title>
<path fill="none" stroke="black" d="M714.23,-585.9C756.64,-573.48 844.47,-547.76 893.66,-533.35"/>
<polygon fill="black" stroke="black" points="894.64,-536.71 903.25,-530.54 892.67,-529.99 894.64,-536.71"/>
</g>
<!-- sg&#45;&gt;vv -->
<g id="edge108" class="edge">
<title>sg&#45;&gt;vv</title>
<path fill="none" stroke="black" d="M757.43,-794.15C748.94,-784.87 737.83,-772.73 728.2,-762.19"/>
<polygon fill="black" stroke="black" points="730.91,-759.96 721.57,-754.94 725.74,-764.68 730.91,-759.96"/>
</g>
<!-- sg&#45;&gt;tr -->
<g id="edge109" class="edge">
<title>sg&#45;&gt;tr</title>
<path fill="none" stroke="black" d="M774.5,-791.87C779.4,-767.88 788.36,-723.99 794.25,-695.16"/>
<polygon fill="black" stroke="black" points="797.61,-696.17 796.19,-685.67 790.76,-694.77 797.61,-696.17"/>
</g>
<!-- dv&#45;&gt;rc -->
<g id="edge37" class="edge">
<title>dv&#45;&gt;rc</title>
<path fill="none" stroke="black" d="M1188,-684.23C1189.61,-721.01 1185.46,-807.5 1180.22,-852.57"/>
<polygon fill="black" stroke="black" points="1176.77,-851.98 1178.95,-862.35 1183.71,-852.88 1176.77,-851.98"/>
</g>
<!-- dv&#45;&gt;hx -->
<g id="edge35" class="edge">
<title>dv&#45;&gt;hx</title>
<path fill="none" stroke="black" d="M1212.24,-663.51C1246.96,-660.08 1306.38,-648.83 1339,-612 1365.82,-581.72 1358,-563.45 1358,-523 1358,-523 1358,-523 1358,-377 1358,-301.58 1260.47,-261.14 1205.91,-244.41"/>
<polygon fill="black" stroke="black" points="1207,-241.09 1196.42,-241.63 1205.03,-247.8 1207,-241.09"/>
</g>
<!-- bl -->
<g id="node35" class="node">
<title>bl</title>
<ellipse fill="none" stroke="black" cx="1303" cy="-594" rx="27" ry="18"/>
<text text-anchor="middle" x="1303" y="-589.33" font-family="Times,serif" font-size="14.00">bl</text>
</g>
<!-- dv&#45;&gt;bl -->
<g id="edge36" class="edge">
<title>dv&#45;&gt;bl</title>
<path fill="none" stroke="black" d="M1204.75,-653.28C1223.47,-642.18 1251.84,-625.35 1273.28,-612.63"/>
<polygon fill="black" stroke="black" points="1275.07,-615.64 1281.88,-607.53 1271.5,-609.62 1275.07,-615.64"/>
</g>
<!-- fd -->
<g id="node36" class="node">
<title>fd</title>
<ellipse fill="none" stroke="black" cx="1189" cy="-378" rx="27" ry="18"/>
<text text-anchor="middle" x="1189" y="-373.32" font-family="Times,serif" font-size="14.00">fd</text>
</g>
<!-- dv&#45;&gt;fd -->
<g id="edge38" class="edge">
<title>dv&#45;&gt;fd</title>
<path fill="none" stroke="black" d="M1185.24,-647.54C1185.91,-599.76 1187.78,-466.51 1188.6,-407.61"/>
<polygon fill="black" stroke="black" points="1192.1,-407.79 1188.74,-397.74 1185.1,-407.69 1192.1,-407.79"/>
</g>
<!-- xt -->
<g id="node37" class="node">
<title>xt</title>
<ellipse fill="none" stroke="black" cx="1003" cy="-594" rx="27" ry="18"/>
<text text-anchor="middle" x="1003" y="-589.33" font-family="Times,serif" font-size="14.00">xt</text>
</g>
<!-- dv&#45;&gt;xt -->
<g id="edge39" class="edge">
<title>dv&#45;&gt;xt</title>
<path fill="none" stroke="black" d="M1161.95,-656.61C1133.96,-646.35 1085.35,-628.34 1044,-612 1041.37,-610.96 1038.64,-609.87 1035.91,-608.76"/>
<polygon fill="black" stroke="black" points="1037.48,-605.62 1026.9,-605.06 1034.83,-612.1 1037.48,-605.62"/>
</g>
<!-- jt -->
<g id="node45" class="node">
<title>jt</title>
<ellipse fill="none" stroke="black" cx="1265" cy="-522" rx="27" ry="18"/>
<text text-anchor="middle" x="1265" y="-517.33" font-family="Times,serif" font-size="14.00">jt</text>
</g>
<!-- bl&#45;&gt;jt -->
<g id="edge54" class="edge">
<title>bl&#45;&gt;jt</title>
<path fill="none" stroke="black" d="M1294.19,-576.76C1289.73,-568.55 1284.2,-558.37 1279.16,-549.09"/>
<polygon fill="black" stroke="black" points="1282.33,-547.6 1274.49,-540.48 1276.18,-550.94 1282.33,-547.6"/>
</g>
<!-- td -->
<g id="node48" class="node">
<title>td</title>
<ellipse fill="none" stroke="black" cx="1170" cy="-306" rx="27" ry="18"/>
<text text-anchor="middle" x="1170" y="-301.32" font-family="Times,serif" font-size="14.00">td</text>
</g>
<!-- fd&#45;&gt;td -->
<g id="edge95" class="edge">
<title>fd&#45;&gt;td</title>
<path fill="none" stroke="black" d="M1184.4,-360.05C1182.35,-352.49 1179.87,-343.37 1177.56,-334.85"/>
<polygon fill="black" stroke="black" points="1180.95,-333.98 1174.95,-325.25 1174.2,-335.82 1180.95,-333.98"/>
</g>
<!-- xt&#45;&gt;dg -->
<g id="edge44" class="edge">
<title>xt&#45;&gt;dg</title>
<path fill="none" stroke="black" d="M988.02,-578.83C977.76,-569.13 963.94,-556.06 952.26,-545"/>
<polygon fill="black" stroke="black" points="954.98,-542.75 945.31,-538.42 950.17,-547.84 954.98,-542.75"/>
</g>
<!-- vh&#45;&gt;vv -->
<g id="edge84" class="edge">
<title>vh&#45;&gt;vv</title>
<path fill="none" stroke="black" d="M610.64,-395.97C605.69,-422.52 597,-475.56 597,-521 597,-595 597,-595 597,-595 597,-648.64 646.67,-694.31 679.25,-718.5"/>
<polygon fill="black" stroke="black" points="676.95,-721.15 687.11,-724.14 681.03,-715.47 676.95,-721.15"/>
</g>
<!-- xx -->
<g id="node57" class="node">
<title>xx</title>
<ellipse fill="none" stroke="black" cx="595" cy="-306" rx="27" ry="18"/>
<text text-anchor="middle" x="595" y="-301.32" font-family="Times,serif" font-size="14.00">xx</text>
</g>
<!-- vh&#45;&gt;xx -->
<g id="edge83" class="edge">
<title>vh&#45;&gt;xx</title>
<path fill="none" stroke="black" d="M609.4,-360.05C607.35,-352.49 604.87,-343.37 602.56,-334.85"/>
<polygon fill="black" stroke="black" points="605.95,-333.98 599.95,-325.25 599.2,-335.82 605.95,-333.98"/>
</g>
<!-- qh&#45;&gt;ln -->
<g id="edge78" class="edge">
<title>qh&#45;&gt;ln</title>
<path fill="none" stroke="black" d="M1670.19,-648.76C1665.73,-640.55 1660.2,-630.37 1655.16,-621.09"/>
<polygon fill="black" stroke="black" points="1658.33,-619.6 1650.49,-612.48 1652.18,-622.94 1658.33,-619.6"/>
</g>
<!-- rx -->
<g id="node56" class="node">
<title>rx</title>
<ellipse fill="none" stroke="black" cx="929" cy="-450" rx="27" ry="18"/>
<text text-anchor="middle" x="929" y="-445.32" font-family="Times,serif" font-size="14.00">rx</text>
</g>
<!-- dg&#45;&gt;rx -->
<g id="edge77" class="edge">
<title>dg&#45;&gt;rx</title>
<path fill="none" stroke="black" d="M929,-503.7C929,-496.41 929,-487.73 929,-479.54"/>
<polygon fill="black" stroke="black" points="932.5,-479.62 929,-469.62 925.5,-479.62 932.5,-479.62"/>
</g>
<!-- cd&#45;&gt;ps -->
<g id="edge53" class="edge">
<title>cd&#45;&gt;ps</title>
<path fill="none" stroke="black" d="M314.25,-391.07C346.28,-412.8 407,-461.81 407,-521 407,-667 407,-667 407,-667 407,-766.89 355.51,-877.39 329.57,-926.72"/>
<polygon fill="black" stroke="black" points="326.51,-925.03 324.87,-935.49 332.68,-928.33 326.51,-925.03"/>
</g>
<!-- cd&#45;&gt;jc -->
<g id="edge52" class="edge">
<title>cd&#45;&gt;jc</title>
<path fill="none" stroke="black" d="M281.7,-394.08C273.67,-404.11 264.05,-417.98 259,-432 233.79,-502.07 233.4,-591.23 235.21,-636.23"/>
<polygon fill="black" stroke="black" points="231.72,-636.37 235.69,-646.19 238.71,-636.03 231.72,-636.37"/>
</g>
<!-- dc&#45;&gt;dv -->
<g id="edge96" class="edge">
<title>dc&#45;&gt;dv</title>
<path fill="none" stroke="black" d="M1125.78,-105.13C1101.82,-128.99 1058,-179.89 1058,-233 1058,-523 1058,-523 1058,-523 1058,-580.69 1116.95,-625.68 1154.52,-648.5"/>
<polygon fill="black" stroke="black" points="1152.33,-651.27 1162.72,-653.32 1155.87,-645.23 1152.33,-651.27"/>
</g>
<!-- nv -->
<g id="node59" class="node">
<title>nv</title>
<ellipse fill="none" stroke="black" cx="1255" cy="-18" rx="27" ry="18"/>
<text text-anchor="middle" x="1255" y="-13.32" font-family="Times,serif" font-size="14.00">nv</text>
</g>
<!-- dc&#45;&gt;nv -->
<g id="edge97" class="edge">
<title>dc&#45;&gt;nv</title>
<path fill="none" stroke="black" d="M1160.34,-77.13C1178.27,-66.11 1205.21,-49.57 1225.77,-36.95"/>
<polygon fill="black" stroke="black" points="1227.59,-39.94 1234.28,-31.72 1223.92,-33.97 1227.59,-39.94"/>
</g>
<!-- vn&#45;&gt;vv -->
<g id="edge98" class="edge">
<title>vn&#45;&gt;vv</title>
<path fill="none" stroke="black" d="M496.64,-107.97C491.69,-134.52 483,-187.56 483,-233 483,-595 483,-595 483,-595 483,-639.73 495.44,-655.6 530,-684 569.98,-716.85 629.85,-729.35 668.68,-734.1"/>
<polygon fill="black" stroke="black" points="668.18,-737.56 678.5,-735.17 668.94,-730.6 668.18,-737.56"/>
</g>
<!-- cc -->
<g id="node47" class="node">
<title>cc</title>
<ellipse fill="none" stroke="black" cx="473" cy="-18" rx="27" ry="18"/>
<text text-anchor="middle" x="473" y="-13.32" font-family="Times,serif" font-size="14.00">cc</text>
</g>
<!-- vn&#45;&gt;cc -->
<g id="edge99" class="edge">
<title>vn&#45;&gt;cc</title>
<path fill="none" stroke="black" d="M493.46,-72.05C490.48,-64.32 486.87,-54.96 483.52,-46.27"/>
<polygon fill="black" stroke="black" points="486.88,-45.27 480.02,-37.2 480.35,-47.79 486.88,-45.27"/>
</g>
<!-- zv&#45;&gt;dg -->
<g id="edge51" class="edge">
<title>zv&#45;&gt;dg</title>
<path fill="none" stroke="black" d="M912.33,-647.59C915.54,-623.61 921.35,-580.14 925.2,-551.42"/>
<polygon fill="black" stroke="black" points="928.65,-551.99 926.51,-541.61 921.71,-551.06 928.65,-551.99"/>
</g>
<!-- jt&#45;&gt;dv -->
<g id="edge75" class="edge">
<title>jt&#45;&gt;dv</title>
<path fill="none" stroke="black" d="M1258.41,-539.91C1251.02,-558.2 1238.18,-587.97 1224,-612 1218.2,-621.83 1210.99,-632.05 1204.35,-640.87"/>
<polygon fill="black" stroke="black" points="1201.73,-638.55 1198.39,-648.6 1207.27,-642.82 1201.73,-638.55"/>
</g>
<!-- vp -->
<g id="node50" class="node">
<title>vp</title>
<ellipse fill="none" stroke="black" cx="1227" cy="-450" rx="27" ry="18"/>
<text text-anchor="middle" x="1227" y="-445.32" font-family="Times,serif" font-size="14.00">vp</text>
</g>
<!-- jt&#45;&gt;vp -->
<g id="edge76" class="edge">
<title>jt&#45;&gt;vp</title>
<path fill="none" stroke="black" d="M1256.19,-504.76C1251.73,-496.55 1246.2,-486.37 1241.16,-477.09"/>
<polygon fill="black" stroke="black" points="1244.33,-475.6 1236.49,-468.48 1238.18,-478.94 1244.33,-475.6"/>
</g>
<!-- sp&#45;&gt;dg -->
<g id="edge55" class="edge">
<title>sp&#45;&gt;dg</title>
<path fill="none" stroke="black" d="M1022.14,-720.6C1009.43,-696.88 985.52,-651.51 967,-612 957.42,-591.56 947.43,-568.06 940.1,-550.35"/>
<polygon fill="black" stroke="black" points="943.41,-549.21 936.37,-541.29 936.94,-551.87 943.41,-549.21"/>
</g>
<!-- cc&#45;&gt;vv -->
<g id="edge56" class="edge">
<title>cc&#45;&gt;vv</title>
<path fill="none" stroke="black" d="M467.47,-35.84C459.31,-62.21 445,-115.02 445,-161 445,-595 445,-595 445,-595 445,-639.53 456.02,-656.45 491,-684 542.76,-724.77 621.49,-734.74 668.24,-736.85"/>
<polygon fill="black" stroke="black" points="668.05,-740.35 678.17,-737.19 668.29,-733.35 668.05,-740.35"/>
</g>
<!-- td&#45;&gt;hx -->
<g id="edge58" class="edge">
<title>td&#45;&gt;hx</title>
<path fill="none" stroke="black" d="M1170,-287.7C1170,-280.41 1170,-271.73 1170,-263.54"/>
<polygon fill="black" stroke="black" points="1173.5,-263.62 1170,-253.62 1166.5,-263.62 1173.5,-263.62"/>
</g>
<!-- td&#45;&gt;dv -->
<g id="edge57" class="edge">
<title>td&#45;&gt;dv</title>
<path fill="none" stroke="black" d="M1162.89,-323.7C1152.4,-349.89 1134,-402.46 1134,-449 1134,-523 1134,-523 1134,-523 1134,-565.55 1154.53,-611.27 1169.54,-639.01"/>
<polygon fill="black" stroke="black" points="1166.49,-640.72 1174.43,-647.74 1172.6,-637.3 1166.49,-640.72"/>
</g>
<!-- dm -->
<g id="node49" class="node">
<title>dm</title>
<ellipse fill="none" stroke="black" cx="1276" cy="-738" rx="27.01" ry="18"/>
<text text-anchor="middle" x="1276" y="-733.33" font-family="Times,serif" font-size="14.00">dm</text>
</g>
<!-- dm&#45;&gt;dv -->
<g id="edge60" class="edge">
<title>dm&#45;&gt;dv</title>
<path fill="none" stroke="black" d="M1258.88,-723.83C1245.5,-713.54 1226.65,-699.04 1211.34,-687.26"/>
<polygon fill="black" stroke="black" points="1213.61,-684.59 1203.55,-681.27 1209.34,-690.14 1213.61,-684.59"/>
</g>
<!-- dm&#45;&gt;bl -->
<g id="edge59" class="edge">
<title>dm&#45;&gt;bl</title>
<path fill="none" stroke="black" d="M1279.26,-719.87C1283.82,-695.88 1292.16,-651.99 1297.65,-623.16"/>
<polygon fill="black" stroke="black" points="1301.02,-624.15 1299.45,-613.68 1294.14,-622.85 1301.02,-624.15"/>
</g>
<!-- vp&#45;&gt;dv -->
<g id="edge62" class="edge">
<title>vp&#45;&gt;dv</title>
<path fill="none" stroke="black" d="M1223.62,-468.23C1216.4,-505.01 1199.42,-591.5 1190.58,-636.57"/>
<polygon fill="black" stroke="black" points="1187.15,-635.88 1188.66,-646.36 1194.02,-637.23 1187.15,-635.88"/>
</g>
<!-- vp&#45;&gt;fd -->
<g id="edge61" class="edge">
<title>vp&#45;&gt;fd</title>
<path fill="none" stroke="black" d="M1218.19,-432.76C1213.73,-424.55 1208.2,-414.37 1203.16,-405.09"/>
<polygon fill="black" stroke="black" points="1206.33,-403.6 1198.49,-396.48 1200.18,-406.94 1206.33,-403.6"/>
</g>
<!-- rm&#45;&gt;dv -->
<g id="edge88" class="edge">
<title>rm&#45;&gt;dv</title>
<path fill="none" stroke="black" d="M1231.71,-792.15C1222.71,-768.03 1206.04,-723.36 1195.24,-694.43"/>
<polygon fill="black" stroke="black" points="1198.58,-693.39 1191.81,-685.24 1192.03,-695.84 1198.58,-693.39"/>
</g>
<!-- rm&#45;&gt;dm -->
<g id="edge87" class="edge">
<title>rm&#45;&gt;dm</title>
<path fill="none" stroke="black" d="M1246.81,-792.76C1251.27,-784.55 1256.8,-774.37 1261.84,-765.09"/>
<polygon fill="black" stroke="black" points="1264.82,-766.94 1266.51,-756.48 1258.67,-763.6 1264.82,-766.94"/>
</g>
<!-- tr&#45;&gt;br -->
<g id="edge69" class="edge">
<title>tr&#45;&gt;br</title>
<path fill="none" stroke="black" d="M800,-647.7C800,-640.41 800,-631.73 800,-623.54"/>
<polygon fill="black" stroke="black" points="803.5,-623.62 800,-613.62 796.5,-623.62 803.5,-623.62"/>
</g>
<!-- rv -->
<g id="node53" class="node">
<title>rv</title>
<ellipse fill="none" stroke="black" cx="128" cy="-450" rx="27" ry="18"/>
<text text-anchor="middle" x="128" y="-445.32" font-family="Times,serif" font-size="14.00">rv</text>
</g>
<!-- rv&#45;&gt;jc -->
<g id="edge71" class="edge">
<title>rv&#45;&gt;jc</title>
<path fill="none" stroke="black" d="M139.64,-466.21C147.19,-476.51 156.91,-490.64 164,-504 188.21,-549.64 184.67,-565.41 207,-612 211.35,-621.08 216.62,-630.75 221.52,-639.3"/>
<polygon fill="black" stroke="black" points="218.4,-640.89 226.46,-647.76 224.44,-637.36 218.4,-640.89"/>
</g>
<!-- tp -->
<g id="node54" class="node">
<title>tp</title>
<ellipse fill="none" stroke="black" cx="101" cy="-378" rx="27" ry="18"/>
<text text-anchor="middle" x="101" y="-373.32" font-family="Times,serif" font-size="14.00">tp</text>
</g>
<!-- rv&#45;&gt;tp -->
<g id="edge72" class="edge">
<title>rv&#45;&gt;tp</title>
<path fill="none" stroke="black" d="M121.46,-432.05C118.48,-424.32 114.87,-414.96 111.52,-406.27"/>
<polygon fill="black" stroke="black" points="114.88,-405.27 108.02,-397.2 108.35,-407.79 114.88,-405.27"/>
</g>
<!-- tp&#45;&gt;jc -->
<g id="edge82" class="edge">
<title>tp&#45;&gt;jc</title>
<path fill="none" stroke="black" d="M96.08,-395.98C88.27,-425.93 75.49,-489.73 92,-540 104.4,-577.75 115.38,-585.52 145,-612 162.77,-627.89 186.07,-641.25 204.77,-650.58"/>
<polygon fill="black" stroke="black" points="203.01,-653.62 213.54,-654.82 206.06,-647.32 203.01,-653.62"/>
</g>
<!-- tx&#45;&gt;jc -->
<g id="edge74" class="edge">
<title>tx&#45;&gt;jc</title>
<path fill="none" stroke="black" d="M133.14,-540.06C139.43,-559.02 151.46,-589.87 169,-612 179.85,-625.69 194.93,-637.91 208.14,-647.15"/>
<polygon fill="black" stroke="black" points="205.83,-649.82 216.08,-652.5 209.74,-644.01 205.83,-649.82"/>
</g>
<!-- tx&#45;&gt;rv -->
<g id="edge73" class="edge">
<title>tx&#45;&gt;rv</title>
<path fill="none" stroke="black" d="M128,-503.7C128,-496.41 128,-487.73 128,-479.54"/>
<polygon fill="black" stroke="black" points="131.5,-479.62 128,-469.62 124.5,-479.62 131.5,-479.62"/>
</g>
<!-- xx&#45;&gt;cz -->
<g id="edge80" class="edge">
<title>xx&#45;&gt;cz</title>
<path fill="none" stroke="black" d="M595,-287.7C595,-280.41 595,-271.73 595,-263.54"/>
<polygon fill="black" stroke="black" points="598.5,-263.62 595,-253.62 591.5,-263.62 598.5,-263.62"/>
</g>
<!-- xx&#45;&gt;vv -->
<g id="edge79" class="edge">
<title>xx&#45;&gt;vv</title>
<path fill="none" stroke="black" d="M587.89,-323.7C577.4,-349.89 559,-402.46 559,-449 559,-595 559,-595 559,-595 559,-640.15 575.88,-652.26 608,-684 626.34,-702.12 652.14,-715.66 672.81,-724.52"/>
<polygon fill="black" stroke="black" points="671.4,-727.73 681.98,-728.27 674.05,-721.25 671.4,-727.73"/>
</g>
<!-- nj&#45;&gt;xq -->
<g id="edge86" class="edge">
<title>nj&#45;&gt;xq</title>
<path fill="none" stroke="black" d="M1572.77,-236.91C1639.88,-243.3 1810,-270.05 1810,-377 1810,-667 1810,-667 1810,-667 1810,-707.45 1818.62,-726.45 1791,-756 1752.85,-796.8 1685.74,-806.96 1643.41,-809.06"/>
<polygon fill="black" stroke="black" points="1643.56,-805.56 1633.69,-809.41 1643.81,-812.55 1643.56,-805.56"/>
</g>
<!-- nj&#45;&gt;pt -->
<g id="edge85" class="edge">
<title>nj&#45;&gt;pt</title>
<path fill="none" stroke="black" d="M1539.13,-216.41C1535.84,-208.48 1531.82,-198.78 1528.12,-189.84"/>
<polygon fill="black" stroke="black" points="1531.46,-188.77 1524.4,-180.87 1525,-191.45 1531.46,-188.77"/>
</g>
<!-- nv&#45;&gt;dv -->
<g id="edge100" class="edge">
<title>nv&#45;&gt;dv</title>
<path fill="none" stroke="black" d="M1277.03,-28.68C1316.69,-47.77 1396,-94.3 1396,-161 1396,-523 1396,-523 1396,-523 1396,-565.34 1393.03,-583.19 1362,-612 1323.89,-647.39 1263.07,-659.21 1223.58,-663.12"/>
<polygon fill="black" stroke="black" points="1223.48,-659.62 1213.82,-663.95 1224.08,-666.59 1223.48,-659.62"/>
</g>
</g>
</svg>
