<?xml version="1.0" encoding="UTF-8" standalone="no"?>
<!DOCTYPE svg PUBLIC "-//W3C//DTD SVG 1.1//EN"
 "http://www.w3.org/Graphics/SVG/1.1/DTD/svg11.dtd">
<!-- Generated by graphviz version 9.0.0 (0)
 -->
<!-- Title: G Pages: 1 -->
<svg width="1093pt" height="692pt"
 viewBox="0.00 0.00 1093.05 692.00" xmlns="http://www.w3.org/2000/svg" xmlns:xlink="http://www.w3.org/1999/xlink">
<g id="graph0" class="graph" transform="scale(1 1) rotate(0) translate(4 688)">
<title>G</title>
<polygon fill="white" stroke="none" points="-4,4 -4,-688 1089.05,-688 1089.05,4 -4,4"/>
<!-- n127_87 -->
<g id="node1" class="node">
<title>n127_87</title>
<ellipse fill="none" stroke="black" cx="564.21" cy="-450" rx="53.84" ry="18"/>
<text text-anchor="middle" x="564.21" y="-445.32" font-family="Times,serif" font-size="14.00">n127_87</text>
</g>
<!-- n103_81 -->
<g id="node2" class="node">
<title>n103_81</title>
<ellipse fill="none" stroke="black" cx="580.21" cy="-378" rx="53.84" ry="18"/>
<text text-anchor="middle" x="580.21" y="-373.32" font-family="Times,serif" font-size="14.00">n103_81</text>
</g>
<!-- n127_87&#45;&#45;n103_81 -->
<g id="edge1" class="edge">
<title>n127_87&#45;&#45;n103_81</title>
<path fill="none" stroke="black" d="M568.17,-431.7C570.65,-420.85 573.83,-406.92 576.3,-396.1"/>
</g>
<!-- n99_61 -->
<g id="node3" class="node">
<title>n99_61</title>
<ellipse fill="none" stroke="black" cx="400.21" cy="-594" rx="47.53" ry="18"/>
<text text-anchor="middle" x="400.21" y="-589.33" font-family="Times,serif" font-size="14.00">n99_61</text>
</g>
<!-- n99_61&#45;&#45;n103_81 -->
<g id="edge5" class="edge">
<title>n99_61&#45;&#45;n103_81</title>
<path fill="none" stroke="black" d="M439.34,-583.31C461.66,-575.56 487.79,-562.2 501.21,-540 526.05,-498.92 478.62,-474.35 501.21,-432 510.85,-413.93 529.69,-400.93 546.55,-392.33"/>
</g>
<!-- n111_33 -->
<g id="node4" class="node">
<title>n111_33</title>
<ellipse fill="none" stroke="black" cx="161.21" cy="-522" rx="53.84" ry="18"/>
<text text-anchor="middle" x="161.21" y="-517.33" font-family="Times,serif" font-size="14.00">n111_33</text>
</g>
<!-- n99_61&#45;&#45;n111_33 -->
<g id="edge2" class="edge">
<title>n99_61&#45;&#45;n111_33</title>
<path fill="none" stroke="black" d="M363.39,-582.22C319.4,-569.33 246.07,-547.85 200.86,-534.61"/>
</g>
<!-- n83_55 -->
<g id="node5" class="node">
<title>n83_55</title>
<ellipse fill="none" stroke="black" cx="444.21" cy="-522" rx="47.53" ry="18"/>
<text text-anchor="middle" x="444.21" y="-517.33" font-family="Times,serif" font-size="14.00">n83_55</text>
</g>
<!-- n99_61&#45;&#45;n83_55 -->
<g id="edge3" class="edge">
<title>n99_61&#45;&#45;n83_55</title>
<path fill="none" stroke="black" d="M410.86,-576.05C417.78,-565.05 426.76,-550.76 433.66,-539.79"/>
</g>
<!-- n131_63 -->
<g id="node6" class="node">
<title>n131_63</title>
<ellipse fill="none" stroke="black" cx="325.21" cy="-522" rx="53.84" ry="18"/>
<text text-anchor="middle" x="325.21" y="-517.33" font-family="Times,serif" font-size="14.00">n131_63</text>
</g>
<!-- n99_61&#45;&#45;n131_63 -->
<g id="edge4" class="edge">
<title>n99_61&#45;&#45;n131_63</title>
<path fill="none" stroke="black" d="M382.82,-576.76C370.79,-565.54 354.84,-550.65 342.77,-539.39"/>
</g>
<!-- n101_17 -->
<g id="node18" class="node">
<title>n101_17</title>
<ellipse fill="none" stroke="black" cx="85.21" cy="-450" rx="53.84" ry="18"/>
<text text-anchor="middle" x="85.21" y="-445.32" font-family="Times,serif" font-size="14.00">n101_17</text>
</g>
<!-- n111_33&#45;&#45;n101_17 -->
<g id="edge19" class="edge">
<title>n111_33&#45;&#45;n101_17</title>
<path fill="none" stroke="black" d="M143.58,-504.76C131.39,-493.54 115.23,-478.65 103.01,-467.39"/>
</g>
<!-- n55_55 -->
<g id="node17" class="node">
<title>n55_55</title>
<ellipse fill="none" stroke="black" cx="463.21" cy="-306" rx="47.53" ry="18"/>
<text text-anchor="middle" x="463.21" y="-301.32" font-family="Times,serif" font-size="14.00">n55_55</text>
</g>
<!-- n83_55&#45;&#45;n55_55 -->
<g id="edge46" class="edge">
<title>n83_55&#45;&#45;n55_55</title>
<path fill="none" stroke="black" d="M445.73,-503.85C449.29,-463.78 458.12,-364.38 461.68,-324.23"/>
</g>
<!-- n131_63&#45;&#45;n127_87 -->
<g id="edge51" class="edge">
<title>n131_63&#45;&#45;n127_87</title>
<path fill="none" stroke="black" d="M364.68,-509.44C408.96,-496.47 480.38,-475.55 524.69,-462.58"/>
</g>
<!-- n41_53 -->
<g id="node7" class="node">
<title>n41_53</title>
<ellipse fill="none" stroke="black" cx="463.21" cy="-234" rx="47.53" ry="18"/>
<text text-anchor="middle" x="463.21" y="-229.32" font-family="Times,serif" font-size="14.00">n41_53</text>
</g>
<!-- n13_57 -->
<g id="node8" class="node">
<title>n13_57</title>
<ellipse fill="none" stroke="black" cx="463.21" cy="-18" rx="47.53" ry="18"/>
<text text-anchor="middle" x="463.21" y="-13.32" font-family="Times,serif" font-size="14.00">n13_57</text>
</g>
<!-- n41_53&#45;&#45;n13_57 -->
<g id="edge6" class="edge">
<title>n41_53&#45;&#45;n13_57</title>
<path fill="none" stroke="black" d="M463.21,-215.85C463.21,-175.78 463.21,-76.38 463.21,-36.23"/>
</g>
<!-- n33_43 -->
<g id="node9" class="node">
<title>n33_43</title>
<ellipse fill="none" stroke="black" cx="387.21" cy="-162" rx="47.53" ry="18"/>
<text text-anchor="middle" x="387.21" y="-157.32" font-family="Times,serif" font-size="14.00">n33_43</text>
</g>
<!-- n41_53&#45;&#45;n33_43 -->
<g id="edge7" class="edge">
<title>n41_53&#45;&#45;n33_43</title>
<path fill="none" stroke="black" d="M445.97,-217.12C433.62,-205.74 417.05,-190.48 404.65,-179.06"/>
</g>
<!-- n39_81 -->
<g id="node10" class="node">
<title>n39_81</title>
<ellipse fill="none" stroke="black" cx="777.21" cy="-162" rx="47.53" ry="18"/>
<text text-anchor="middle" x="777.21" y="-157.32" font-family="Times,serif" font-size="14.00">n39_81</text>
</g>
<!-- n41_53&#45;&#45;n39_81 -->
<g id="edge8" class="edge">
<title>n41_53&#45;&#45;n39_81</title>
<path fill="none" stroke="black" d="M503.3,-224.06C563.48,-210.65 676.54,-185.44 736.87,-171.99"/>
</g>
<!-- n17_43 -->
<g id="node33" class="node">
<title>n17_43</title>
<ellipse fill="none" stroke="black" cx="387.21" cy="-90" rx="47.53" ry="18"/>
<text text-anchor="middle" x="387.21" y="-85.33" font-family="Times,serif" font-size="14.00">n17_43</text>
</g>
<!-- n33_43&#45;&#45;n17_43 -->
<g id="edge52" class="edge">
<title>n33_43&#45;&#45;n17_43</title>
<path fill="none" stroke="black" d="M387.21,-143.7C387.21,-132.85 387.21,-118.92 387.21,-108.1"/>
</g>
<!-- n79_105 -->
<g id="node11" class="node">
<title>n79_105</title>
<ellipse fill="none" stroke="black" cx="892.21" cy="-522" rx="53.84" ry="18"/>
<text text-anchor="middle" x="892.21" y="-517.33" font-family="Times,serif" font-size="14.00">n79_105</text>
</g>
<!-- n109_99 -->
<g id="node12" class="node">
<title>n109_99</title>
<ellipse fill="none" stroke="black" cx="728.21" cy="-450" rx="53.84" ry="18"/>
<text text-anchor="middle" x="728.21" y="-445.32" font-family="Times,serif" font-size="14.00">n109_99</text>
</g>
<!-- n79_105&#45;&#45;n109_99 -->
<g id="edge9" class="edge">
<title>n79_105&#45;&#45;n109_99</title>
<path fill="none" stroke="black" d="M859.81,-507.17C831.06,-494.9 789.28,-477.06 760.55,-464.8"/>
</g>
<!-- n63_103 -->
<g id="node13" class="node">
<title>n63_103</title>
<ellipse fill="none" stroke="black" cx="968.21" cy="-450" rx="53.84" ry="18"/>
<text text-anchor="middle" x="968.21" y="-445.32" font-family="Times,serif" font-size="14.00">n63_103</text>
</g>
<!-- n79_105&#45;&#45;n63_103 -->
<g id="edge10" class="edge">
<title>n79_105&#45;&#45;n63_103</title>
<path fill="none" stroke="black" d="M909.84,-504.76C922.03,-493.54 938.19,-478.65 950.42,-467.39"/>
</g>
<!-- n109_99&#45;&#45;n103_81 -->
<g id="edge16" class="edge">
<title>n109_99&#45;&#45;n103_81</title>
<path fill="none" stroke="black" d="M697.9,-434.67C672.36,-422.59 636.01,-405.39 610.48,-393.32"/>
</g>
<!-- n101_129 -->
<g id="node16" class="node">
<title>n101_129</title>
<ellipse fill="none" stroke="black" cx="728.21" cy="-378" rx="60.15" ry="18"/>
<text text-anchor="middle" x="728.21" y="-373.32" font-family="Times,serif" font-size="14.00">n101_129</text>
</g>
<!-- n109_99&#45;&#45;n101_129 -->
<g id="edge15" class="edge">
<title>n109_99&#45;&#45;n101_129</title>
<path fill="none" stroke="black" d="M728.21,-431.7C728.21,-420.85 728.21,-406.92 728.21,-396.1"/>
</g>
<!-- n55_79 -->
<g id="node15" class="node">
<title>n55_79</title>
<ellipse fill="none" stroke="black" cx="854.21" cy="-378" rx="47.53" ry="18"/>
<text text-anchor="middle" x="854.21" y="-373.32" font-family="Times,serif" font-size="14.00">n55_79</text>
</g>
<!-- n63_103&#45;&#45;n55_79 -->
<g id="edge48" class="edge">
<title>n63_103&#45;&#45;n55_79</title>
<path fill="none" stroke="black" d="M943.19,-433.64C923.92,-421.81 897.45,-405.55 878.39,-393.85"/>
</g>
<!-- n61_123 -->
<g id="node29" class="node">
<title>n61_123</title>
<ellipse fill="none" stroke="black" cx="1031.21" cy="-378" rx="53.84" ry="18"/>
<text text-anchor="middle" x="1031.21" y="-373.32" font-family="Times,serif" font-size="14.00">n61_123</text>
</g>
<!-- n63_103&#45;&#45;n61_123 -->
<g id="edge47" class="edge">
<title>n63_103&#45;&#45;n61_123</title>
<path fill="none" stroke="black" d="M983.14,-432.41C993.18,-421.25 1006.37,-406.6 1016.39,-395.47"/>
</g>
<!-- n43_113 -->
<g id="node36" class="node">
<title>n43_113</title>
<ellipse fill="none" stroke="black" cx="949.21" cy="-306" rx="53.84" ry="18"/>
<text text-anchor="middle" x="949.21" y="-301.32" font-family="Times,serif" font-size="14.00">n43_113</text>
</g>
<!-- n63_103&#45;&#45;n43_113 -->
<g id="edge49" class="edge">
<title>n63_103&#45;&#45;n43_113</title>
<path fill="none" stroke="black" d="M965.88,-431.59C962.22,-404.19 955.14,-351.32 951.5,-324.11"/>
</g>
<!-- n85_81 -->
<g id="node14" class="node">
<title>n85_81</title>
<ellipse fill="none" stroke="black" cx="791.21" cy="-594" rx="47.53" ry="18"/>
<text text-anchor="middle" x="791.21" y="-589.33" font-family="Times,serif" font-size="14.00">n85_81</text>
</g>
<!-- n85_81&#45;&#45;n103_81 -->
<g id="edge14" class="edge">
<title>n85_81&#45;&#45;n103_81</title>
<path fill="none" stroke="black" d="M778.84,-576.2C764.62,-557.48 740.03,-526.84 715.21,-504 695.06,-485.45 685.87,-485.98 665.21,-468 638.46,-444.71 610.66,-414.21 594.42,-395.63"/>
</g>
<!-- n85_81&#45;&#45;n83_55 -->
<g id="edge11" class="edge">
<title>n85_81&#45;&#45;n83_55</title>
<path fill="none" stroke="black" d="M753.04,-582.88C743.64,-580.51 733.59,-578.07 724.21,-576 640.64,-557.51 542.15,-539.8 487.07,-530.27"/>
</g>
<!-- n85_81&#45;&#45;n79_105 -->
<g id="edge13" class="edge">
<title>n85_81&#45;&#45;n79_105</title>
<path fill="none" stroke="black" d="M813.13,-577.81C829.84,-566.23 852.77,-550.34 869.64,-538.64"/>
</g>
<!-- n85_81&#45;&#45;n55_79 -->
<g id="edge12" class="edge">
<title>n85_81&#45;&#45;n55_79</title>
<path fill="none" stroke="black" d="M796.26,-575.85C808.06,-535.78 837.32,-436.38 849.14,-396.23"/>
</g>
<!-- n55_79&#45;&#45;n39_81 -->
<g id="edge17" class="edge">
<title>n55_79&#45;&#45;n39_81</title>
<path fill="none" stroke="black" d="M845.12,-360.07C832.77,-336.45 810.67,-292.01 797.21,-252 789.03,-227.68 783.2,-198.5 780.01,-180.35"/>
</g>
<!-- n55_79&#45;&#45;n55_55 -->
<g id="edge18" class="edge">
<title>n55_79&#45;&#45;n55_55</title>
<path fill="none" stroke="black" d="M818.83,-365.66C811.72,-363.6 804.26,-361.6 797.21,-360 695.02,-336.76 572.95,-320.16 508.41,-312.24"/>
</g>
<!-- n55_55&#45;&#45;n41_53 -->
<g id="edge50" class="edge">
<title>n55_55&#45;&#45;n41_53</title>
<path fill="none" stroke="black" d="M463.21,-287.7C463.21,-276.85 463.21,-262.92 463.21,-252.1"/>
</g>
<!-- n137_133 -->
<g id="node19" class="node">
<title>n137_133</title>
<ellipse fill="none" stroke="black" cx="655.21" cy="-594" rx="60.15" ry="18"/>
<text text-anchor="middle" x="655.21" y="-589.33" font-family="Times,serif" font-size="14.00">n137_133</text>
</g>
<!-- n137_133&#45;&#45;n101_129 -->
<g id="edge21" class="edge">
<title>n137_133&#45;&#45;n101_129</title>
<path fill="none" stroke="black" d="M682.78,-577.65C715.83,-557.45 769.48,-518.52 791.21,-468 797.53,-453.3 797.96,-446.51 791.21,-432 783.85,-416.19 769.2,-403.41 755.88,-394.37"/>
</g>
<!-- n133_105 -->
<g id="node20" class="node">
<title>n133_105</title>
<ellipse fill="none" stroke="black" cx="646.21" cy="-522" rx="60.15" ry="18"/>
<text text-anchor="middle" x="646.21" y="-517.33" font-family="Times,serif" font-size="14.00">n133_105</text>
</g>
<!-- n137_133&#45;&#45;n133_105 -->
<g id="edge20" class="edge">
<title>n137_133&#45;&#45;n133_105</title>
<path fill="none" stroke="black" d="M652.99,-575.7C651.59,-564.85 649.8,-550.92 648.41,-540.1"/>
</g>
<!-- n133_105&#45;&#45;n127_87 -->
<g id="edge57" class="edge">
<title>n133_105&#45;&#45;n127_87</title>
<path fill="none" stroke="black" d="M627.19,-504.76C613.95,-493.46 596.35,-478.44 583.13,-467.15"/>
</g>
<!-- n133_105&#45;&#45;n109_99 -->
<g id="edge56" class="edge">
<title>n133_105&#45;&#45;n109_99</title>
<path fill="none" stroke="black" d="M665.23,-504.76C678.48,-493.46 696.07,-478.44 709.3,-467.15"/>
</g>
<!-- n87_5 -->
<g id="node21" class="node">
<title>n87_5</title>
<ellipse fill="none" stroke="black" cx="41.21" cy="-666" rx="41.21" ry="18"/>
<text text-anchor="middle" x="41.21" y="-661.33" font-family="Times,serif" font-size="14.00">n87_5</text>
</g>
<!-- n87_5&#45;&#45;n101_17 -->
<g id="edge23" class="edge">
<title>n87_5&#45;&#45;n101_17</title>
<path fill="none" stroke="black" d="M44.74,-647.85C52.98,-607.78 73.41,-508.38 81.67,-468.23"/>
</g>
<!-- n87_31 -->
<g id="node22" class="node">
<title>n87_31</title>
<ellipse fill="none" stroke="black" cx="243.21" cy="-594" rx="47.53" ry="18"/>
<text text-anchor="middle" x="243.21" y="-589.33" font-family="Times,serif" font-size="14.00">n87_31</text>
</g>
<!-- n87_5&#45;&#45;n87_31 -->
<g id="edge22" class="edge">
<title>n87_5&#45;&#45;n87_31</title>
<path fill="none" stroke="black" d="M72.77,-654.06C109.72,-641.26 170.71,-620.13 208.83,-606.91"/>
</g>
<!-- n59_7 -->
<g id="node23" class="node">
<title>n59_7</title>
<ellipse fill="none" stroke="black" cx="311.21" cy="-306" rx="41.21" ry="18"/>
<text text-anchor="middle" x="311.21" y="-301.32" font-family="Times,serif" font-size="14.00">n59_7</text>
</g>
<!-- n87_5&#45;&#45;n59_7 -->
<g id="edge24" class="edge">
<title>n87_5&#45;&#45;n59_7</title>
<path fill="none" stroke="black" d="M33.52,-647.91C22.42,-621.62 3.21,-569.45 3.21,-523 3.21,-523 3.21,-523 3.21,-449 3.21,-333 185.6,-311.44 269.67,-307.67"/>
</g>
<!-- n87_31&#45;&#45;n111_33 -->
<g id="edge60" class="edge">
<title>n87_31&#45;&#45;n111_33</title>
<path fill="none" stroke="black" d="M224.6,-577.12C211.37,-565.82 193.66,-550.7 180.31,-539.31"/>
</g>
<!-- n87_31&#45;&#45;n83_55 -->
<g id="edge59" class="edge">
<title>n87_31&#45;&#45;n83_55</title>
<path fill="none" stroke="black" d="M277.31,-581.13C314.27,-568.25 372.92,-547.83 409.95,-534.93"/>
</g>
<!-- n65_31 -->
<g id="node31" class="node">
<title>n65_31</title>
<ellipse fill="none" stroke="black" cx="330.21" cy="-378" rx="47.53" ry="18"/>
<text text-anchor="middle" x="330.21" y="-373.32" font-family="Times,serif" font-size="14.00">n65_31</text>
</g>
<!-- n87_31&#45;&#45;n65_31 -->
<g id="edge58" class="edge">
<title>n87_31&#45;&#45;n65_31</title>
<path fill="none" stroke="black" d="M245.42,-575.52C248.08,-557.27 253.33,-528.01 262.21,-504 277.38,-462.99 304.08,-418.93 319.12,-395.65"/>
</g>
<!-- n35_15 -->
<g id="node24" class="node">
<title>n35_15</title>
<ellipse fill="none" stroke="black" cx="311.21" cy="-234" rx="47.53" ry="18"/>
<text text-anchor="middle" x="311.21" y="-229.32" font-family="Times,serif" font-size="14.00">n35_15</text>
</g>
<!-- n59_7&#45;&#45;n35_15 -->
<g id="edge25" class="edge">
<title>n59_7&#45;&#45;n35_15</title>
<path fill="none" stroke="black" d="M311.21,-287.7C311.21,-276.85 311.21,-262.92 311.21,-252.1"/>
</g>
<!-- n35_15&#45;&#45;n33_43 -->
<g id="edge29" class="edge">
<title>n35_15&#45;&#45;n33_43</title>
<path fill="none" stroke="black" d="M328.46,-217.12C340.81,-205.74 357.38,-190.48 369.77,-179.06"/>
</g>
<!-- n11_15 -->
<g id="node28" class="node">
<title>n11_15</title>
<ellipse fill="none" stroke="black" cx="311.21" cy="-18" rx="47.53" ry="18"/>
<text text-anchor="middle" x="311.21" y="-13.32" font-family="Times,serif" font-size="14.00">n11_15</text>
</g>
<!-- n35_15&#45;&#45;n11_15 -->
<g id="edge28" class="edge">
<title>n35_15&#45;&#45;n11_15</title>
<path fill="none" stroke="black" d="M311.21,-215.85C311.21,-175.78 311.21,-76.38 311.21,-36.23"/>
</g>
<!-- n139_139 -->
<g id="node25" class="node">
<title>n139_139</title>
<ellipse fill="none" stroke="black" cx="655.21" cy="-666" rx="60.15" ry="18"/>
<text text-anchor="middle" x="655.21" y="-661.33" font-family="Times,serif" font-size="14.00">n139_139</text>
</g>
<!-- n139_139&#45;&#45;n137_133 -->
<g id="edge26" class="edge">
<title>n139_139&#45;&#45;n137_133</title>
<path fill="none" stroke="black" d="M655.21,-647.7C655.21,-636.85 655.21,-622.92 655.21,-612.1"/>
</g>
<!-- n39_129 -->
<g id="node26" class="node">
<title>n39_129</title>
<ellipse fill="none" stroke="black" cx="1031.21" cy="-234" rx="53.84" ry="18"/>
<text text-anchor="middle" x="1031.21" y="-229.32" font-family="Times,serif" font-size="14.00">n39_129</text>
</g>
<!-- n13_113 -->
<g id="node27" class="node">
<title>n13_113</title>
<ellipse fill="none" stroke="black" cx="949.21" cy="-162" rx="53.84" ry="18"/>
<text text-anchor="middle" x="949.21" y="-157.32" font-family="Times,serif" font-size="14.00">n13_113</text>
</g>
<!-- n39_129&#45;&#45;n13_113 -->
<g id="edge27" class="edge">
<title>n39_129&#45;&#45;n13_113</title>
<path fill="none" stroke="black" d="M1012.19,-216.76C998.95,-205.46 981.35,-190.44 968.13,-179.15"/>
</g>
<!-- n61_123&#45;&#45;n39_129 -->
<g id="edge30" class="edge">
<title>n61_123&#45;&#45;n39_129</title>
<path fill="none" stroke="black" d="M1031.21,-359.59C1031.21,-332.19 1031.21,-279.32 1031.21,-252.11"/>
</g>
<!-- n83_129 -->
<g id="node30" class="node">
<title>n83_129</title>
<ellipse fill="none" stroke="black" cx="974.21" cy="-594" rx="53.84" ry="18"/>
<text text-anchor="middle" x="974.21" y="-589.33" font-family="Times,serif" font-size="14.00">n83_129</text>
</g>
<!-- n83_129&#45;&#45;n79_105 -->
<g id="edge31" class="edge">
<title>n83_129&#45;&#45;n79_105</title>
<path fill="none" stroke="black" d="M955.19,-576.76C941.95,-565.46 924.35,-550.44 911.13,-539.15"/>
</g>
<!-- n83_129&#45;&#45;n101_129 -->
<g id="edge33" class="edge">
<title>n83_129&#45;&#45;n101_129</title>
<path fill="none" stroke="black" d="M974.62,-575.54C974.2,-556.23 970.85,-525.05 955.21,-504 942.13,-486.39 817.27,-423.08 758.51,-393.91"/>
</g>
<!-- n83_129&#45;&#45;n61_123 -->
<g id="edge32" class="edge">
<title>n83_129&#45;&#45;n61_123</title>
<path fill="none" stroke="black" d="M984.82,-576.03C998.7,-552.72 1022.3,-509.02 1031.21,-468 1036.53,-443.54 1035.11,-414.4 1033.36,-396.29"/>
</g>
<!-- n65_31&#45;&#45;n33_43 -->
<g id="edge35" class="edge">
<title>n65_31&#45;&#45;n33_43</title>
<path fill="none" stroke="black" d="M342.25,-360.13C348.85,-350.09 356.6,-336.84 361.21,-324 379.2,-273.9 384.79,-210.56 386.49,-180.44"/>
</g>
<!-- n65_31&#45;&#45;n55_55 -->
<g id="edge36" class="edge">
<title>n65_31&#45;&#45;n55_55</title>
<path fill="none" stroke="black" d="M357.13,-362.83C380.2,-350.69 413.27,-333.28 436.34,-321.14"/>
</g>
<!-- n65_31&#45;&#45;n59_7 -->
<g id="edge34" class="edge">
<title>n65_31&#45;&#45;n59_7</title>
<path fill="none" stroke="black" d="M325.52,-359.7C322.57,-348.85 318.79,-334.92 315.85,-324.1"/>
</g>
<!-- n1_0 -->
<g id="node32" class="node">
<title>n1_0</title>
<ellipse fill="none" stroke="black" cx="248.21" cy="-90" rx="34.9" ry="18"/>
<text text-anchor="middle" x="248.21" y="-85.33" font-family="Times,serif" font-size="14.00">n1_0</text>
</g>
<!-- n1_0&#45;&#45;n11_15 -->
<g id="edge37" class="edge">
<title>n1_0&#45;&#45;n11_15</title>
<path fill="none" stroke="black" d="M262.51,-73.12C272.67,-61.82 286.29,-46.7 296.54,-35.31"/>
</g>
<!-- n17_43&#45;&#45;n13_57 -->
<g id="edge38" class="edge">
<title>n17_43&#45;&#45;n13_57</title>
<path fill="none" stroke="black" d="M404.46,-73.12C416.81,-61.74 433.38,-46.48 445.77,-35.06"/>
</g>
<!-- n17_43&#45;&#45;n11_15 -->
<g id="edge39" class="edge">
<title>n17_43&#45;&#45;n11_15</title>
<path fill="none" stroke="black" d="M369.97,-73.12C357.62,-61.74 341.05,-46.48 328.65,-35.06"/>
</g>
<!-- n135_35 -->
<g id="node34" class="node">
<title>n135_35</title>
<ellipse fill="none" stroke="black" cx="124.21" cy="-594" rx="53.84" ry="18"/>
<text text-anchor="middle" x="124.21" y="-589.33" font-family="Times,serif" font-size="14.00">n135_35</text>
</g>
<!-- n135_35&#45;&#45;n111_33 -->
<g id="edge41" class="edge">
<title>n135_35&#45;&#45;n111_33</title>
<path fill="none" stroke="black" d="M133.17,-576.05C138.99,-565.05 146.54,-550.76 152.34,-539.79"/>
</g>
<!-- n135_35&#45;&#45;n131_63 -->
<g id="edge40" class="edge">
<title>n135_35&#45;&#45;n131_63</title>
<path fill="none" stroke="black" d="M160.61,-580.32C196.93,-567.68 252.41,-548.36 288.74,-535.7"/>
</g>
<!-- n135_35&#45;&#45;n101_17 -->
<g id="edge42" class="edge">
<title>n135_35&#45;&#45;n101_17</title>
<path fill="none" stroke="black" d="M114.12,-575.9C108.6,-565.78 102.1,-552.53 98.21,-540 90.72,-515.84 87.51,-486.62 86.15,-468.41"/>
</g>
<!-- n5_79 -->
<g id="node35" class="node">
<title>n5_79</title>
<ellipse fill="none" stroke="black" cx="880.21" cy="-234" rx="41.21" ry="18"/>
<text text-anchor="middle" x="880.21" y="-229.32" font-family="Times,serif" font-size="14.00">n5_79</text>
</g>
<!-- n5_79&#45;&#45;n13_57 -->
<g id="edge43" class="edge">
<title>n5_79&#45;&#45;n13_57</title>
<path fill="none" stroke="black" d="M875.61,-215.78C869.42,-195.8 856.52,-163.15 834.21,-144 738.03,-61.43 585.09,-32.83 509.13,-23.38"/>
</g>
<!-- n5_79&#45;&#45;n39_81 -->
<g id="edge45" class="edge">
<title>n5_79&#45;&#45;n39_81</title>
<path fill="none" stroke="black" d="M858.87,-218.5C841.55,-206.72 817.19,-190.17 799.6,-178.21"/>
</g>
<!-- n5_79&#45;&#45;n13_113 -->
<g id="edge44" class="edge">
<title>n5_79&#45;&#45;n13_113</title>
<path fill="none" stroke="black" d="M895.87,-217.12C907,-205.82 921.91,-190.7 933.14,-179.31"/>
</g>
<!-- n43_113&#45;&#45;n39_81 -->
<g id="edge55" class="edge">
<title>n43_113&#45;&#45;n39_81</title>
<path fill="none" stroke="black" d="M908.49,-293.79C883.71,-285.4 852.61,-271.9 830.21,-252 807.62,-231.93 791.86,-199.88 783.69,-180.21"/>
</g>
<!-- n43_113&#45;&#45;n39_129 -->
<g id="edge54" class="edge">
<title>n43_113&#45;&#45;n39_129</title>
<path fill="none" stroke="black" d="M968.23,-288.76C981.48,-277.46 999.07,-262.44 1012.3,-251.15"/>
</g>
<!-- n43_113&#45;&#45;n13_113 -->
<g id="edge53" class="edge">
<title>n43_113&#45;&#45;n13_113</title>
<path fill="none" stroke="black" d="M949.21,-287.59C949.21,-260.19 949.21,-207.32 949.21,-180.11"/>
</g>
</g>
</svg>
